<svg version="1.1" xmlns="http://www.w3.org/2000/svg" xmlns:xlink="http://www.w3.org/1999/xlink" width="700" height="700" viewBox="510,293.5,700,700"><g id="document" fill="#fafafa" fill-rule="nonzero" stroke="#000000" stroke-width="0" stroke-linecap="butt" stroke-linejoin="miter" stroke-miterlimit="10" stroke-dasharray="" stroke-dashoffset="0" font-family="none" font-weight="none" font-size="none" text-anchor="none" style="mix-blend-mode: normal"><rect x="510" y="209.64286" transform="scale(1,1.4)" width="700" height="500" id="Shape 1 1" vector-effect="non-scaling-stroke"/></g><g fill="none" fill-rule="nonzero" stroke="none" stroke-width="1" stroke-linecap="none" stroke-linejoin="none" stroke-miterlimit="10" stroke-dasharray="" stroke-dashoffset="0" font-family="none" font-weight="none" font-size="none" text-anchor="none" style="mix-blend-mode: normal"><g id="stage"><g id="layer1 1" stroke="#000000" stroke-linecap="round" stroke-linejoin="round"><path d="M603.61137,649.9134c0,-145.32843 117.81197,-263.1404 263.1404,-263.1404c145.32843,0 263.1404,117.81197 263.1404,263.1404c0,145.32843 -117.81197,263.1404 -263.1404,263.1404c-145.32843,0 -263.1404,-117.81197 -263.1404,-263.1404z" id="Path 1" fill="#384259"/><path d="" id="Path 1" fill="#ffffff"/><path d="" id="Path 1" fill="#ffffff"/><path d="M959.82872,718.97734l96.47692,71.28794c-27.50237,34.37815 -64.90626,61.04569 -108.10613,76.05299l-40.46993,-107.97723c20.94846,-7.87587 38.99576,-21.67801 52.09914,-39.36369z" id="Path 1" fill="#ffffff"/><path d="M881.25967,764.67284c5.51802,-0.69054 10.91522,-1.76981 16.1633,-3.20952l30.37619,111.20572c-10.52695,2.66283 -21.33726,4.65335 -32.37831,5.92095z" id="Path 1" fill="#ffffff"/><path d="M759.6388,649.9134c0,-59.15686 47.95611,-107.11297 107.11297,-107.11297c59.15686,0 107.11297,47.95611 107.11297,107.11297c0,59.15686 -47.95611,107.11297 -107.11297,107.11297c-59.15686,0 -107.11297,-47.95611 -107.11297,-107.11297z" id="Path 1" fill="#ffffff"/><path d="M768.43141,649.9134c0,-54.30083 44.01952,-98.32036 98.32036,-98.32036c54.30083,0 98.32036,44.01952 98.32036,98.32036c0,54.30083 -44.01952,98.32036 -98.32036,98.32036c-54.30083,0 -98.32036,-44.01952 -98.32036,-98.32036z" id="Path 1" fill="#384259"/><path d="M825.89988,649.9134c0,-22.56188 18.29002,-40.85189 40.85189,-40.85189c22.56188,0 40.85189,18.29002 40.85189,40.85189c0,22.56188 -18.29002,40.85189 -40.85189,40.85189c-22.56188,0 -40.85189,-18.29002 -40.85189,-40.85189z" id="Path 1" fill="#ffffff"/></g><g id="Layer2 1" fill="none" stroke="none" stroke-linecap="butt" stroke-linejoin="miter" font-family="sans-serif" font-weight="normal" font-size="12" text-anchor="start"/></g></g></svg>